<svg width="273" height="46" viewBox="0 0 273 46" fill="none" xmlns="http://www.w3.org/2000/svg">
<path d="M0.6875 0.84375H8.625V19.2812H27.9688V0.84375H35.9062V45H27.9688V26.5625H8.625V45H0.6875V0.84375ZM59.6875 0.84375H65.625L83.2188 45H74.6562L71.125 35.4062H54.2188L50.6562 45H42L59.6875 0.84375ZM68.625 28.625L62.6875 12.5L56.7188 28.625H68.625ZM89.3125 0.84375H97.25V37.5H116.125V45H89.3125V0.84375ZM122.562 0.84375H130.5V37.5H149.375V45H122.562V0.84375ZM171.062 45.625C165.333 45.625 161.083 44.0625 158.312 40.9375C155.562 37.7917 154.188 33.4062 154.188 27.7812V0.84375H162.094V26.875C162.094 29.3958 162.354 31.4583 162.875 33.0625C163.417 34.6458 164.333 35.8646 165.625 36.7188C166.938 37.5521 168.75 37.9688 171.062 37.9688C173.375 37.9688 175.188 37.5521 176.5 36.7188C177.812 35.8854 178.729 34.6667 179.25 33.0625C179.771 31.4583 180.031 29.3958 180.031 26.875V0.84375H187.969V27.4688C187.969 33.2396 186.583 37.7083 183.812 40.875C181.062 44.0417 176.812 45.625 171.062 45.625ZM216.562 45.625C211.896 45.625 207.958 44.6042 204.75 42.5625C201.542 40.5208 199.146 37.7812 197.562 34.3438C195.979 30.8854 195.188 27.0729 195.188 22.9062C195.188 18.7396 195.969 14.9375 197.531 11.5C199.115 8.04167 201.51 5.28125 204.719 3.21875C207.927 1.15625 211.854 0.125 216.5 0.125C220.896 0.125 224.771 1.21875 228.125 3.40625C231.479 5.57292 234.042 8.70833 235.812 12.8125L228.406 15.75C227.615 12.9583 226.177 10.9167 224.094 9.625C222.031 8.33333 219.479 7.6875 216.438 7.6875C213.438 7.6875 210.938 8.34375 208.938 9.65625C206.938 10.9688 205.458 12.75 204.5 15C203.542 17.2292 203.062 19.7604 203.062 22.5938C203.062 25.6146 203.542 28.2917 204.5 30.625C205.458 32.9375 206.948 34.7604 208.969 36.0938C210.99 37.4271 213.521 38.0938 216.562 38.0938C219.479 38.0938 221.906 37.4583 223.844 36.1875C225.802 34.8958 227.365 32.8021 228.531 29.9062L235.875 32.9062C234.146 37.0104 231.594 40.1562 228.219 42.3438C224.865 44.5312 220.979 45.625 216.562 45.625ZM243.062 0.84375H272.438V8.125H251V19.2812H270.969V26.5625H251V37.5H272.438V45H243.062V0.84375Z" fill="#A4A474"/>
</svg>
